<svg width="264" height="46" viewBox="0 0 264 46" fill="none" xmlns="http://www.w3.org/2000/svg">
<path d="M52.15 14.1C52.15 13.9 52.0501 13.81 51.8601 13.81H51.3V13H52.2701C52.8301 13 53.07 13.24 53.07 13.8V19.04C53.07 20.58 54.0301 21.54 55.5401 21.54C57.0401 21.54 58.0201 20.58 58.0201 19.01V13.8C58.0201 13.23 58.25 13 58.82 13H59.7901V13.82H59.23C59.05 13.82 58.94 13.91 58.94 14.11V19.09C58.94 21.09 57.58 22.42 55.56 22.42C53.54 22.42 52.17 21.09 52.17 19.09V14.1H52.15Z" fill="#25355A"/>
<path d="M63.3 21.43H63.8601C64.0401 21.43 64.1501 21.34 64.1501 21.14V13H64.9901L69.68 19.59C69.99 20.05 70.43 20.8 70.43 20.8H70.46C70.46 20.8 70.39 20.08 70.39 19.59V13.8C70.39 13.23 70.62 13 71.19 13H72.16V13.82H71.6C71.42 13.82 71.3101 13.91 71.3101 14.11V22.26H70.4701L65.78 15.67C65.45 15.22 65.0201 14.47 65.0201 14.47H64.9901C64.9901 14.47 65.07 15.18 65.07 15.67V21.46C65.07 22.03 64.8401 22.26 64.2701 22.26H63.3V21.43Z" fill="#25355A"/>
<path d="M75.8701 21.43H76.7301V13.81H75.8701V13H78.4901V13.82H77.6201V21.44H78.4901V22.26H75.8701V21.43Z" fill="#25355A"/>
<path d="M82.4501 14.1C82.3601 13.85 82.2301 13.81 81.9801 13.81H81.8501V13H82.2501C82.9001 13 83.1001 13.13 83.3201 13.76L85.5801 19.98C85.7501 20.45 85.9301 21.18 85.9301 21.18H85.9601C85.9601 21.18 86.1401 20.45 86.3101 19.98L88.5701 13.76C88.8001 13.12 89.0001 13 89.6501 13H90.0401V13.82H89.9201C89.6701 13.82 89.5401 13.86 89.4501 14.11L86.4401 22.26H85.4601L82.4501 14.1Z" fill="#25355A"/>
<path d="M94.2201 13.81H93.3701V13H98.6201C99.1801 13 99.4201 13.24 99.4201 13.8V14.72H98.5601V14.1C98.5601 13.9 98.4601 13.81 98.2701 13.81H95.1401V17.18H98.5901V18H95.1401V21.15C95.1401 21.35 95.2401 21.44 95.4301 21.44H98.6501C98.8301 21.44 98.9401 21.35 98.9401 21.15V20.53H99.7901V21.45C99.7901 22.02 99.5601 22.25 98.9901 22.25H95.0201C94.4601 22.25 94.2201 22.01 94.2201 21.45V13.81V13.81Z" fill="#25355A"/>
<path d="M104.1 13.81H103.25V13H107.14C108.68 13 109.78 14.03 109.78 15.63C109.78 17.06 108.91 17.91 108 18.1V18.13C108 18.13 108.18 18.24 108.31 18.5L109.63 21.13C109.76 21.41 109.96 21.43 110.28 21.43H110.46V22.25H110.06C109.32 22.25 109.1 22.16 108.79 21.55L107.47 18.9C107.22 18.41 107.05 18.35 106.54 18.35H105V22.25H104.1V13.81ZM107.05 17.54C108.15 17.54 108.82 16.82 108.82 15.66C108.82 14.51 108.14 13.82 107.06 13.82H105.01V17.54H107.05Z" fill="#25355A"/>
<path d="M114.25 20.42C114.25 20.42 115.18 21.55 116.63 21.55C117.63 21.55 118.44 20.89 118.44 19.91C118.44 17.62 113.91 18.08 113.91 15.21C113.91 13.92 115.02 12.84 116.72 12.84C117.61 12.84 119.2 13.22 119.2 14.43V15.09H118.34V14.66C118.34 14.11 117.58 13.7 116.73 13.7C115.54 13.7 114.85 14.4 114.85 15.19C114.85 17.34 119.38 16.81 119.38 19.86C119.38 21.24 118.32 22.41 116.6 22.41C114.72 22.41 113.69 21.09 113.69 21.09L114.25 20.42Z" fill="#25355A"/>
<path d="M123.17 21.43H124.03V13.81H123.17V13H125.79V13.82H124.92V21.44H125.79V22.26H123.17V21.43Z" fill="#25355A"/>
<path d="M132.58 13.81H130.31C130.13 13.81 130.02 13.89 130.02 14.1V14.72H129.18V13.75C129.18 13.19 129.36 13 129.92 13H136.13C136.69 13 136.87 13.18 136.87 13.75V14.72H136.02V14.1C136.02 13.89 135.93 13.81 135.73 13.81H133.47V22.25H132.56V13.81H132.58Z" fill="#25355A"/>
<path d="M143.23 18.22L140.78 14.15C140.61 13.87 140.44 13.81 140.17 13.81H139.96V13H140.31C140.94 13 141.17 13.09 141.56 13.74L143.11 16.36C143.4 16.85 143.67 17.4 143.67 17.4H143.7C143.7 17.4 143.97 16.85 144.26 16.36L145.81 13.74C146.2 13.1 146.44 13 147.06 13H147.41V13.82H147.2C146.94 13.82 146.76 13.89 146.6 14.16L144.13 18.23V22.26H143.22V18.22H143.23Z" fill="#25355A"/>
<path d="M161.02 12.84C163.62 12.84 165.69 14.91 165.69 17.56C165.69 20.27 163.61 22.4 161.02 22.4C158.41 22.4 156.35 20.27 156.35 17.56C156.34 14.9 158.4 12.84 161.02 12.84ZM161.02 21.54C163.07 21.54 164.74 19.8 164.74 17.56C164.74 15.38 163.07 13.7 161.02 13.7C158.96 13.7 157.3 15.37 157.3 17.56C157.3 19.8 158.95 21.54 161.02 21.54Z" fill="#25355A"/>
<path d="M170.17 13.81H169.32V13H174.2C174.76 13 174.98 13.24 174.98 13.8V14.72H174.13V14.1C174.13 13.9 174.03 13.81 173.84 13.81H171.07V17.28H174.4V18.1H171.07V22.25H170.16V13.81H170.17Z" fill="#25355A"/>
<path d="M187.37 13.81H185.1C184.92 13.81 184.81 13.89 184.81 14.1V14.72H183.97V13.75C183.97 13.19 184.15 13 184.71 13H190.92C191.48 13 191.66 13.18 191.66 13.75V14.72H190.81V14.1C190.81 13.89 190.72 13.81 190.52 13.81H188.26V22.25H187.35V13.81H187.37Z" fill="#25355A"/>
<path d="M199.4 12.84C202 12.84 204.07 14.91 204.07 17.56C204.07 20.27 201.99 22.4 199.4 22.4C196.79 22.4 194.73 20.27 194.73 17.56C194.72 14.9 196.79 12.84 199.4 12.84ZM199.4 21.54C201.45 21.54 203.12 19.8 203.12 17.56C203.12 15.38 201.45 13.7 199.4 13.7C197.34 13.7 195.68 15.37 195.68 17.56C195.68 19.8 197.33 21.54 199.4 21.54Z" fill="#25355A"/>
<path d="M208.55 13.81H207.7V13H211.59C213.13 13 214.23 14.03 214.23 15.63C214.23 17.06 213.36 17.91 212.45 18.1V18.13C212.45 18.13 212.63 18.24 212.76 18.5L214.08 21.13C214.21 21.41 214.41 21.43 214.73 21.43H214.91V22.25H214.51C213.77 22.25 213.55 22.16 213.24 21.55L211.92 18.9C211.67 18.41 211.5 18.35 210.99 18.35H209.45V22.25H208.54V13.81H208.55ZM211.5 17.54C212.6 17.54 213.27 16.82 213.27 15.66C213.27 14.51 212.59 13.82 211.51 13.82H209.46V17.54H211.5Z" fill="#25355A"/>
<path d="M222.78 12.84C225.38 12.84 227.45 14.91 227.45 17.56C227.45 20.27 225.37 22.4 222.78 22.4C220.17 22.4 218.11 20.27 218.11 17.56C218.1 14.9 220.17 12.84 222.78 12.84ZM222.78 21.54C224.83 21.54 226.5 19.8 226.5 17.56C226.5 15.38 224.83 13.7 222.78 13.7C220.72 13.7 219.06 15.37 219.06 17.56C219.06 19.8 220.72 21.54 222.78 21.54Z" fill="#25355A"/>
<path d="M231.08 21.43H231.64C231.82 21.43 231.93 21.34 231.93 21.14V13H232.77L237.46 19.59C237.77 20.05 238.21 20.8 238.21 20.8H238.24C238.24 20.8 238.17 20.08 238.17 19.59V13.8C238.17 13.23 238.4 13 238.97 13H239.94V13.82H239.38C239.2 13.82 239.09 13.91 239.09 14.11V22.26H238.25L233.56 15.67C233.23 15.22 232.8 14.47 232.8 14.47H232.77C232.77 14.47 232.85 15.18 232.85 15.67V21.46C232.85 22.03 232.62 22.26 232.05 22.26H231.09V21.43H231.08Z" fill="#25355A"/>
<path d="M246.64 13.81H244.37C244.19 13.81 244.08 13.89 244.08 14.1V14.72H243.24V13.75C243.24 13.19 243.42 13 243.98 13H250.19C250.75 13 250.93 13.18 250.93 13.75V14.72H250.08V14.1C250.08 13.89 249.99 13.81 249.79 13.81H247.53V22.25H246.62V13.81H246.64Z" fill="#25355A"/>
<path d="M258.67 12.84C261.27 12.84 263.34 14.91 263.34 17.56C263.34 20.27 261.26 22.4 258.67 22.4C256.06 22.4 254 20.27 254 17.56C253.99 14.9 256.06 12.84 258.67 12.84ZM258.67 21.54C260.72 21.54 262.39 19.8 262.39 17.56C262.39 15.38 260.72 13.7 258.67 13.7C256.61 13.7 254.95 15.37 254.95 17.56C254.95 19.8 256.6 21.54 258.67 21.54Z" fill="#25355A"/>
<path d="M54.912 31C57.1407 31 58.8805 32.6871 58.8805 34.8458C58.8805 35.8345 58.5043 36.7506 57.9119 37.4399L58.8617 38.3651L58.3914 38.8458L57.4417 37.9116C56.7552 38.483 55.89 38.7914 54.9214 38.7914C52.7303 38.7914 51 37.0408 51 34.8458C50.9906 32.678 52.7209 31 54.912 31ZM54.912 38.0839C56.1345 38.0839 56.8962 37.3946 56.8962 37.3946L55.9747 36.4785L56.4449 35.9977L57.357 36.9229C57.799 36.3787 58.0717 35.6258 58.0717 34.8458C58.0717 33.068 56.6988 31.7165 54.912 31.7165C53.1629 31.7165 51.79 33.068 51.79 34.8458C51.7994 36.6599 53.1629 38.0839 54.912 38.0839Z" fill="#25355A"/>
<path d="M62.5667 32.025C62.5667 31.8617 62.4821 31.7891 62.3222 31.7891H61.8521V31.127H62.6702C63.1404 31.127 63.3378 31.3175 63.3378 31.7801V36.0431C63.3378 37.2948 64.156 38.0839 65.4255 38.0839C66.695 38.0839 67.5226 37.3039 67.5226 36.025V31.7801C67.5226 31.3175 67.72 31.127 68.1902 31.127H69.0084V31.7891H68.5382C68.3877 31.7891 68.2937 31.8617 68.2937 32.025V36.0794C68.2937 37.712 67.1464 38.7914 65.4349 38.7914C63.7234 38.7914 62.5667 37.712 62.5667 36.0794V32.025Z" fill="#25355A"/>
<path d="M71.4816 37.9932H71.6226C71.8201 37.9932 71.9424 37.966 72.0176 37.7574L74.5566 31.1179H75.3842L77.9232 37.7574C77.9984 37.9569 78.1113 37.9932 78.3182 37.9932H78.4498V38.6554H78.0925C77.5376 38.6554 77.3778 38.5465 77.1803 38.0295L76.5032 36.2517H73.4282L72.7417 38.0295C72.5442 38.5465 72.3844 38.6554 71.8389 38.6554H71.4722V37.9932H71.4816ZM76.2963 35.6077L75.2713 32.9138C75.1397 32.5601 74.9704 31.9343 74.9704 31.9343H74.9516C74.9516 31.9343 74.7823 32.5601 74.6507 32.9138L73.6351 35.6077H76.2963Z" fill="#25355A"/>
<path d="M81.2522 37.9932H81.7224C81.8729 37.9932 81.9669 37.9207 81.9669 37.7574V31.1179H82.6722L86.6312 36.4876C86.8945 36.8594 87.2612 37.4762 87.2612 37.4762H87.28C87.28 37.4762 87.2236 36.8866 87.2236 36.4876V31.771C87.2236 31.3084 87.4211 31.1179 87.9007 31.1179H88.7188V31.7801H88.2486C88.0888 31.7801 88.0041 31.8526 88.0041 32.0159V38.6554H87.2989L83.3398 33.2857C83.0671 32.9229 82.7004 32.3061 82.7004 32.3061H82.6816C82.6816 32.3061 82.7474 32.8866 82.7474 33.2857V38.0023C82.7474 38.4649 82.5499 38.6554 82.0703 38.6554H81.2522V37.9932Z" fill="#25355A"/>
<path d="M94.3799 31.7891H92.4615C92.3111 31.7891 92.217 31.8526 92.217 32.025V32.5329H91.5117V31.7347C91.5117 31.2721 91.6716 31.127 92.1418 31.127H97.3891C97.8593 31.127 98.0192 31.2812 98.0192 31.7347V32.5329H97.3045V32.025C97.3045 31.8526 97.2293 31.7891 97.06 31.7891H95.151V38.6644H94.3799V31.7891V31.7891Z" fill="#25355A"/>
<path d="M101.461 32.025C101.461 31.8617 101.376 31.7891 101.217 31.7891H100.746V31.127H101.564C102.035 31.127 102.232 31.3175 102.232 31.7801V36.0431C102.232 37.2948 103.05 38.0839 104.32 38.0839C105.589 38.0839 106.417 37.3039 106.417 36.025V31.7801C106.417 31.3175 106.614 31.127 107.085 31.127H107.903V31.7891H107.432C107.282 31.7891 107.188 31.8617 107.188 32.025V36.0794C107.188 37.712 106.041 38.7914 104.329 38.7914C102.618 38.7914 101.461 37.712 101.461 36.0794V32.025Z" fill="#25355A"/>
<path d="M110.649 37.9932H111.053C111.204 37.9932 111.288 37.9207 111.298 37.7574L111.834 31.1179H112.614L114.664 35.4989C114.852 35.8889 115.05 36.3878 115.05 36.3878H115.068C115.068 36.3878 115.266 35.8889 115.445 35.4989L117.495 31.1179H118.275L118.811 37.7574C118.821 37.9207 118.905 37.9932 119.056 37.9932H119.479V38.6554H118.727C118.256 38.6554 118.087 38.4649 118.059 38.0023L117.692 33.4218C117.664 33.0136 117.664 32.3696 117.664 32.3696H117.645C117.645 32.3696 117.438 33.0318 117.25 33.4218L115.407 37.2495H114.711L112.877 33.4218C112.699 33.0499 112.473 32.3515 112.473 32.3515H112.454C112.454 32.3515 112.454 33.0136 112.426 33.4218L112.059 38.0023C112.031 38.4649 111.862 38.6554 111.392 38.6554H110.649V37.9932V37.9932Z" fill="#25355A"/>
<path d="M131.347 31C132.447 31 134.243 31.4626 134.243 32.5964V33.2222H133.519V32.805C133.519 32.0975 132.259 31.7075 131.365 31.7075C129.644 31.7075 128.318 33.0136 128.318 34.8367C128.318 36.6417 129.635 38.0839 131.394 38.0839C132.992 38.0839 133.933 37.0227 133.933 37.0227L134.375 37.5669C134.375 37.5669 133.303 38.7914 131.384 38.7914C129.118 38.7914 127.51 37.0317 127.51 34.8367C127.529 32.6599 129.165 31 131.347 31Z" fill="#25355A"/>
<path d="M141.258 31C143.449 31 145.208 32.6871 145.208 34.8458C145.208 37.059 143.458 38.7914 141.258 38.7914C139.057 38.7914 137.308 37.059 137.308 34.8458C137.308 32.678 139.048 31 141.258 31ZM141.258 38.0839C142.988 38.0839 144.399 36.6689 144.399 34.8458C144.399 33.068 142.988 31.7075 141.258 31.7075C139.518 31.7075 138.117 33.068 138.117 34.8458C138.117 36.6689 139.509 38.0839 141.258 38.0839Z" fill="#25355A"/>
<path d="M148.038 37.9932H148.442C148.593 37.9932 148.678 37.9207 148.687 37.7574L149.223 31.1179H150.003L152.054 35.4989C152.242 35.8889 152.439 36.3878 152.439 36.3878H152.458C152.458 36.3878 152.655 35.8889 152.834 35.4989L154.884 31.1179H155.665L156.201 37.7574C156.21 37.9207 156.295 37.9932 156.445 37.9932H156.868V38.6554H156.116C155.646 38.6554 155.477 38.4649 155.448 38.0023L155.082 33.4218C155.053 33.0136 155.053 32.3696 155.053 32.3696H155.035C155.035 32.3696 154.828 33.0318 154.64 33.4218L152.796 37.2495H152.101L150.267 33.4218C150.088 33.0499 149.862 32.3515 149.862 32.3515H149.844C149.844 32.3515 149.844 33.0136 149.815 33.4218L149.449 38.0023C149.42 38.4649 149.251 38.6554 148.781 38.6554H148.038V37.9932V37.9932Z" fill="#25355A"/>
<path d="M160.48 31.7891H159.765V31.127H163.037C164.42 31.127 165.426 32.0068 165.426 33.4037C165.426 34.8096 164.41 35.7075 163.037 35.7075H161.251V38.6644H160.48V31.7891V31.7891ZM162.934 35.0363C163.959 35.0363 164.636 34.4286 164.636 33.3946C164.636 32.3787 163.959 31.7891 162.953 31.7891H161.251V35.0363H162.934Z" fill="#25355A"/>
<path d="M168.962 32.025C168.962 31.8617 168.877 31.7891 168.717 31.7891H168.247V31.127H169.065C169.535 31.127 169.733 31.3175 169.733 31.7801V36.0431C169.733 37.2948 170.551 38.0839 171.821 38.0839C173.09 38.0839 173.918 37.3039 173.918 36.025V31.7801C173.918 31.3175 174.115 31.127 174.585 31.127H175.403V31.7891H174.933C174.783 31.7891 174.689 31.8617 174.689 32.025V36.0794C174.689 37.712 173.541 38.7914 171.83 38.7914C170.118 38.7914 168.962 37.712 168.962 36.0794V32.025Z" fill="#25355A"/>
<path d="M180.999 31.7891H179.08C178.93 31.7891 178.836 31.8526 178.836 32.025V32.5329H178.13V31.7347C178.13 31.2721 178.29 31.127 178.76 31.127H184.008C184.478 31.127 184.638 31.2812 184.638 31.7347V32.5329H183.923V32.025C183.923 31.8526 183.848 31.7891 183.679 31.7891H181.77V38.6644H180.999V31.7891V31.7891Z" fill="#25355A"/>
<path d="M187.497 37.9932H188.221V31.7891H187.497V31.127H189.716V31.7891H188.973V37.9932H189.716V38.6554H187.497V37.9932Z" fill="#25355A"/>
<path d="M192.876 37.9932H193.346C193.496 37.9932 193.59 37.9207 193.59 37.7574V31.1179H194.296L198.255 36.4876C198.518 36.8594 198.885 37.4762 198.885 37.4762H198.913C198.913 37.4762 198.857 36.8866 198.857 36.4876V31.771C198.857 31.3084 199.054 31.1179 199.524 31.1179H200.342V31.7801H199.872C199.722 31.7801 199.628 31.8526 199.628 32.0159V38.6554H198.922L194.963 33.2857C194.691 32.9229 194.324 32.3061 194.324 32.3061H194.305C194.305 32.3061 194.371 32.8866 194.371 33.2857V38.0023C194.371 38.4649 194.173 38.6554 193.694 38.6554H192.876V37.9932V37.9932Z" fill="#25355A"/>
<path d="M207.273 31C209.069 31 209.991 31.9252 209.991 31.9252L209.539 32.4784C209.539 32.4784 208.683 31.7075 207.292 31.7075C205.552 31.7075 204.217 33.068 204.217 34.8821C204.217 36.7324 205.533 38.0839 207.282 38.0839C208.815 38.0839 209.727 36.9773 209.727 36.9773V36.0431C209.727 35.8798 209.633 35.8073 209.483 35.8073H209.013V35.1451H209.784C210.254 35.1451 210.451 35.3356 210.451 35.7982V38.6644H209.746V38.093C209.746 37.9297 209.755 37.7664 209.755 37.7664H209.727C209.727 37.7664 208.824 38.7823 207.188 38.7823C205.072 38.7823 203.398 37.1315 203.398 34.873C203.408 32.7143 205.082 31 207.273 31Z" fill="#25355A"/>
<path d="M229.522 31.9433H228.742V31.2721H232.306C233.717 31.2721 234.723 32.1247 234.723 33.449C234.723 34.6372 233.923 35.3356 233.096 35.4988V35.517C233.096 35.517 233.265 35.6077 233.387 35.8254L234.591 38.0023C234.713 38.229 234.892 38.2562 235.193 38.2562H235.362V38.9274H234.995C234.309 38.9274 234.112 38.8549 233.839 38.3469L232.635 36.161C232.409 35.7619 232.25 35.7075 231.789 35.7075H230.378V38.9274H229.541V31.9433H229.522ZM232.221 35.0272C233.228 35.0272 233.848 34.4286 233.848 33.4671C233.848 32.5147 233.228 31.9433 232.231 31.9433H230.35V35.0272H232.221Z" fill="#25355A"/>
<path d="M241.4 31.127C243.591 31.127 245.349 32.814 245.349 34.9728C245.349 37.1859 243.6 38.9183 241.4 38.9183C239.199 38.9183 237.45 37.1859 237.45 34.9728C237.459 32.805 239.199 31.127 241.4 31.127ZM241.4 38.2109C243.13 38.2109 244.54 36.7959 244.54 34.9728C244.54 33.195 243.13 31.8344 241.4 31.8344C239.66 31.8344 238.259 33.195 238.259 34.9728C238.259 36.7959 239.66 38.2109 241.4 38.2109Z" fill="#25355A"/>
<path d="M258.054 31.916H257.339V31.2539H260.612C261.994 31.2539 263 32.1337 263 33.5305C263 34.9364 261.985 35.8344 260.612 35.8344H258.825V38.7913H258.054V31.916V31.916ZM260.508 35.1632C261.533 35.1632 262.211 34.5555 262.211 33.5215C262.211 32.5056 261.533 31.916 260.527 31.916H258.825V35.1632H260.508Z" fill="#25355A"/>
<path d="M248.264 32.2335C248.264 32.0703 248.18 31.9977 248.02 31.9977H247.55V31.3356H248.368C248.838 31.3356 249.035 31.526 249.035 31.9886V36.2517C249.035 37.5034 249.853 38.2925 251.123 38.2925C252.393 38.2925 253.22 37.5125 253.22 36.2335V31.9886C253.22 31.526 253.418 31.3356 253.888 31.3356H254.706V31.9977H254.236C254.085 31.9977 253.991 32.0703 253.991 32.2335V36.288C253.991 37.9206 252.844 39 251.132 39C249.421 39 248.264 37.9206 248.264 36.288V32.2335Z" fill="#25355A"/>
<path d="M222.827 31.127C224.623 31.127 225.545 32.0521 225.545 32.0521L225.093 32.6054C225.093 32.6054 224.238 31.8344 222.846 31.8344C221.106 31.8344 219.771 33.195 219.771 35.009C219.771 36.8594 221.087 38.2109 222.836 38.2109C224.369 38.2109 225.281 37.1043 225.281 37.1043V36.17C225.281 36.0068 225.187 35.9342 225.037 35.9342H224.567V35.2721H225.338C225.808 35.2721 226.006 35.4626 226.006 35.9251V38.7914H225.3V38.2199C225.3 38.0567 225.31 37.8934 225.31 37.8934H225.281C225.281 37.8934 224.379 38.9093 222.742 38.9093C220.627 38.9093 218.953 37.2585 218.953 35C218.962 32.8412 220.636 31.127 222.827 31.127Z" fill="#25355A"/>
<path d="M22.4933 44.9007C16.6211 44.761 11.0378 42.3923 6.93539 38.3003C2.83298 34.2084 0.536621 28.7175 0.536621 23C0.536621 17.2826 2.83298 11.7917 6.93539 7.6997C11.0378 3.60775 16.6211 1.23903 22.4933 1.0993V2.40798C18.32 2.40539 14.2396 3.60775 10.7685 5.86297C7.29736 8.11818 4.59148 11.3249 2.99318 15.0774C1.39488 18.8299 0.975981 22.9595 1.78951 26.9437C2.60303 30.928 4.61242 34.5878 7.56342 37.4602C10.5144 40.3326 14.2744 42.2885 18.3677 43.0803C22.461 43.8722 26.7036 43.4645 30.5588 41.9088C34.4139 40.3531 37.7084 37.7192 40.0253 34.3406C42.3422 30.9619 43.5775 26.9902 43.5749 22.928C43.5871 20.1677 43.0211 17.4339 41.9116 14.8935C40.802 12.3532 39.172 10.0597 37.1213 8.15307L38.1028 7.15847C41.3313 10.1889 43.556 14.089 44.4915 18.3586C45.427 22.6282 45.0306 27.0725 43.3532 31.1213C41.6758 35.1701 38.7938 38.6388 35.0771 41.0823C31.3604 43.5258 26.9784 44.8327 22.4933 44.8353V44.9007Z" fill="#25355A"/>
<path d="M22.4933 27.5869C14.7087 27.5869 0 26.6316 0 22.9935C0 19.3553 14.7087 18.4131 22.4933 18.4131C30.2779 18.4131 44.9866 19.3684 44.9866 22.9935C44.9866 26.6185 30.2779 27.5869 22.4933 27.5869ZM22.4933 19.7348C8.84674 19.7348 1.41172 21.8549 1.41172 22.9411C1.41172 24.0273 8.84674 26.1605 22.4933 26.1605C36.1398 26.1605 43.5748 24.0404 43.5748 22.9411C43.5748 21.8418 36.1398 19.7872 22.4933 19.7872V19.7348Z" fill="#25355A"/>
<path d="M22.4933 3.58578C23.5106 3.58578 24.3353 2.78307 24.3353 1.79289C24.3353 0.802703 23.5106 0 22.4933 0C21.476 0 20.6514 0.802703 20.6514 1.79289C20.6514 2.78307 21.476 3.58578 22.4933 3.58578Z" fill="#FFB000"/>
<path d="M22.2511 23.2683C22.1804 23.2705 22.11 23.2576 22.045 23.2304C21.9799 23.2033 21.9218 23.1626 21.8747 23.1112C21.8243 23.0636 21.7842 23.0067 21.7568 22.9438C21.7294 22.8808 21.7153 22.8132 21.7153 22.7448C21.7153 22.6764 21.7294 22.6088 21.7568 22.5459C21.7842 22.4829 21.8243 22.426 21.8747 22.3784L36.4758 8.12688C36.5763 8.03097 36.7115 7.97723 36.8523 7.97723C36.993 7.97723 37.1282 8.03097 37.2287 8.12688C37.3273 8.22473 37.3825 8.35629 37.3825 8.49331C37.3825 8.63033 37.3273 8.76188 37.2287 8.85974L22.6141 23.072C22.5724 23.1289 22.5181 23.176 22.4554 23.2099C22.3926 23.2439 22.3228 23.2638 22.2511 23.2683Z" fill="#FFB000"/>
<path d="M36.4491 8.8467L37.0138 10.6003L38.1028 7.22394L34.6475 8.31014L36.4491 8.8467Z" fill="#FFB000"/>
<path d="M22.4933 46C23.5106 46 24.3353 45.1973 24.3353 44.2071C24.3353 43.2169 23.5106 42.4142 22.4933 42.4142C21.476 42.4142 20.6514 43.2169 20.6514 44.2071C20.6514 45.1973 21.476 46 22.4933 46Z" fill="#FFB000"/>
</svg>
